<svg xmlns="http://www.w3.org/2000/svg" version="1.1" x="0" y="0" width="14" height="14" viewBox="9.2 9 14 14" enable-background="new 9.2 9 14 14" xml:space="preserve"><path fill="#0088CC" d="M18.3 16l3.7 3.7c0.2 0.2 0.2 0.6 0 0.9l-1.3 1.3c-0.2 0.2-0.6 0.2-0.9 0l-3.7-3.7 -3.7 3.7c-0.2 0.2-0.6 0.2-0.9 0l-1.3-1.3c-0.2-0.2-0.2-0.6 0-0.9L14 16l-3.7-3.7c-0.2-0.2-0.2-0.6 0-0.9l1.3-1.3c0.2-0.2 0.6-0.2 0.9 0l3.7 3.7 3.7-3.7c0.2-0.2 0.6-0.2 0.9 0l1.3 1.3c0.2 0.2 0.2 0.6 0 0.9C22 12.3 18.3 16 18.3 16z"/></svg>