<svg xmlns="http://www.w3.org/2000/svg" xmlns:xlink="http://www.w3.org/1999/xlink" version="1.1" id="Layer_1" x="0" y="0" width="22.01" height="15.13" viewBox="0" xml:space="preserve" enable-background="new 0 0 22.007 15.13">
  <style type="text/css">
    
	.st0{fill:#0088CC;}

  </style>
  <path class="st0" d="M9.41 6.51c0.8 0 0.35 2.09-0.35 2.09 0.35 0 0 1.74-0.7 1.74 0 0.7-0.7 1.05-1.39 1.05 -2.94 0-1.91-0.74-4.88-1.04V4.77c2.62-0.79 5.23-2.76 5.23-4.53 0.58 0 2.09 0.7 0 4.18 0 0 1.74 0 2.09 0C10.46 4.42 10.11 6.51 9.41 6.51zM1.4 4.77v5.58h0.7v0.35H0.7c-0.38 0-0.7-0.47-0.7-1.04V5.47c0-0.57 0.31-1.04 0.7-1.04h1.39v0.35H1.4z"/>
  <path class="st0" d="M12.6 8.62c-0.79 0-0.35-2.09 0.35-2.09 -0.35 0 0-1.74 0.7-1.74 0-0.7 0.7-1.04 1.39-1.04 2.94 0 1.91 0.74 4.88 1.05v5.58c-2.62 0.79-5.23 2.76-5.23 4.53 -0.58 0-2.09-0.7 0-4.18 0 0-1.74 0-2.09 0C11.55 10.71 11.9 8.62 12.6 8.62zM20.61 10.36V4.79h-0.7V4.44h1.39c0.38 0 0.7 0.47 0.7 1.05v4.18c0 0.57-0.31 1.05-0.7 1.05h-1.39v-0.35H20.61z"/>
</svg>
